<?xml version="1.0" standalone="no"?><!DOCTYPE svg PUBLIC "-//W3C//DTD SVG 1.1//EN" "http://www.w3.org/Graphics/SVG/1.1/DTD/svg11.dtd"><svg t="1588309757106" class="icon" viewBox="0 0 1024 1024" version="1.1" xmlns="http://www.w3.org/2000/svg" p-id="4958" xmlns:xlink="http://www.w3.org/1999/xlink" width="200" height="200"><defs><style type="text/css">@font-face { font-family: yourDictFontAwesome; src: url("chrome-extension://dmckmhkomggmpalekfadjibdcknieljf/lib/fontawesome-webfont.ttf") format("truetype"); font-weight: normal; font-style: normal; }
</style></defs><path d="M564.820068 281.635919l214.181535 99.880274a118.14117 118.14117 0 0 1 57.129298 157.009571l-194.555339 417.270003a118.14117 118.14117 0 0 1-157.009571 57.129298l-214.181536-99.858941a118.14117 118.14117 0 0 1-57.15063-157.009571l194.576671-417.270003a118.14117 118.14117 0 0 1 157.009572-57.150631z" fill="#E2A6D9" p-id="4959"></path><path d="M565.332056 280.569278l214.160202 99.880274a78.76078 78.76078 0 0 1 38.100421 104.658826L605.864418 939.134833a118.14117 118.14117 0 0 1-157.009572 57.150631L270.384455 913.044792a118.14117 118.14117 0 0 1-57.15063-157.009572l195.067326-418.336644a118.14117 118.14117 0 0 1 157.009572-57.150631z" fill="#FFE115" p-id="4960"></path><path d="M533.290157 256.079198a108.306738 108.306738 0 0 0-143.932552 52.393412l-202.875139 435.082909a108.306738 108.306738 0 0 0 52.372078 143.932552l214.181535 99.880273a108.306738 108.306738 0 0 0 143.911219-52.393411l202.87514-435.104242a108.306738 108.306738 0 0 0-52.372079-143.932552l-214.160202-99.858941z m8.3198-17.855572l214.181535 99.880274a127.996933 127.996933 0 0 1 61.886518 170.086591l-202.87514 435.104243a127.996933 127.996933 0 0 1-170.107924 61.90785L230.534743 905.364976a127.996933 127.996933 0 0 1-61.90785-170.107925l202.87514-435.104242a127.996933 127.996933 0 0 1 170.107924-61.90785z" fill="#6530AF" p-id="4961"></path><path d="M819.896623 148.391111a77.758137 77.758137 0 0 1 31.359249 100.050937l-4.479893 9.642435a77.523476 77.523476 0 0 1-98.685635 39.38039c-10.154423-4.010571-35.113825-14.847644-74.878206-32.511221a62.547835 62.547835 0 0 1-18.751551-101.458902l24.895403-24.78874a78.675448 78.675448 0 0 1 43.113634-21.972807c4.565224-4.095902 7.63715-7.317158 9.258445-9.685101 3.839908-5.546534 7.381156-17.642244 10.623745-36.265798a45.908233 45.908233 0 0 1 62.270509-34.751167 57.299961 57.299961 0 0 1 31.14592 76.307505l-15.87162 36.052469z" fill="#E2A6D9" p-id="4962"></path><path d="M802.702369 145.617845a78.782113 78.782113 0 0 1 23.572768 84.755302l-1.066641 3.178591a67.433051 67.433051 0 0 1-89.87518 40.959019l-85.501952-35.540482a75.518191 75.518191 0 0 1-39.444388-101.650898 77.715471 77.715471 0 0 1 85.437953-43.412294l18.772884-40.255035a57.363959 57.363959 0 0 1 76.222174-27.732669 57.44929 57.44929 0 0 1 27.775334 76.328838v0.042666c-3.989238 8.533129-6.250517 13.269015-6.741172 14.250325-6.9545 13.311681-7.445155 23.295442-8.46913 26.239371-0.213328 0.639985-0.426656 1.578629-0.68265 2.837266z" fill="#A8FDFB" p-id="4963"></path><path d="M797.006505 150.695056a9.855764 9.855764 0 0 1-2.666603-11.775718l9.365109-20.095518a68.905016 68.905016 0 1 0-124.925007-58.238605l-9.386442 20.095519a9.855764 9.855764 0 0 1-10.709076 5.503868 68.947681 68.947681 0 0 0-41.727001 130.258212l107.090768 49.918804a68.905016 68.905016 0 0 0 72.958252-115.666562z m36.479126 90.664495a88.616544 88.616544 0 0 1-117.757179 42.85764l-107.090767-49.918804a88.616544 88.616544 0 0 1 45.993564-168.550629l6.293183-13.503676a88.616544 88.616544 0 0 1 160.636151 74.899539l-6.293182 13.503676a88.659209 88.659209 0 0 1 18.21823 100.690921z" fill="#6530AF" p-id="4964"></path><path d="M401.133323 539.485741a9.855764 9.855764 0 1 1 8.319801-17.855572l28.735311 13.397013a9.855764 9.855764 0 0 1-8.319801 17.855572l-28.735311-13.397013zM359.534319 628.720937a9.855764 9.855764 0 0 1 8.319801-17.855572l146.556489 68.350362a9.855764 9.855764 0 1 1-8.319801 17.83424l-146.556489-68.32903zM317.913983 717.956132a9.855764 9.855764 0 1 1 8.319801-17.855572l262.287049 122.30107a9.855764 9.855764 0 0 1-8.3198 17.855572L317.913983 717.956132z" fill="#FFFFFF" p-id="4965"></path></svg>