<?xml version="1.0" standalone="no"?><!DOCTYPE svg PUBLIC "-//W3C//DTD SVG 1.1//EN" "http://www.w3.org/Graphics/SVG/1.1/DTD/svg11.dtd"><svg t="1588309734323" class="icon" viewBox="0 0 1024 1024" version="1.1" xmlns="http://www.w3.org/2000/svg" p-id="4171" xmlns:xlink="http://www.w3.org/1999/xlink" width="200" height="200"><defs><style type="text/css">@font-face { font-family: yourDictFontAwesome; src: url("chrome-extension://dmckmhkomggmpalekfadjibdcknieljf/lib/fontawesome-webfont.ttf") format("truetype"); font-weight: normal; font-style: normal; }
</style></defs><path d="M765.86 402.21v176.5a430.38 430.38 0 0 1-504.63 0v-176.5z" fill="#FFFFFF" p-id="4172"></path><path d="M808.21 398.95h49.89l24.9 516.2H144.1l24.9-516.2h639.21z m-42.35 179.76v-176.5H261.23v176.5a430.38 430.38 0 0 0 504.63 0z" fill="#FFD72E" p-id="4173"></path><path d="M883 936.41H144.1a21.26 21.26 0 0 1-21.24-22.28l24.88-516.2A21.26 21.26 0 0 1 169 377.69h689.1a21.26 21.26 0 0 1 21.24 20.24l24.89 516.2A21.26 21.26 0 0 1 883 936.41z m-716.59-42.52h694.27l-22.84-473.68h-648.6z" fill="#26251E" p-id="4174"></path><path d="M829.49 402.21H787v-3a273.42 273.42 0 0 0-546.81 0V402.24H197.6v-3.45a315.94 315.94 0 0 1 631.85 0c0.03 1.15 0.04 2.28 0.04 3.42z" fill="#26251E" p-id="4175"></path><path d="M513.55 681.69a451.09 451.09 0 0 1-264.78-85.76 21.26 21.26 0 0 1-8.8-17.22v-176.5a21.26 21.26 0 0 1 21.26-21.26h504.63a21.26 21.26 0 0 1 21.26 21.26v176.5a21.26 21.26 0 0 1-8.8 17.22 451.09 451.09 0 0 1-264.78 85.76z m-231.06-114a409.14 409.14 0 0 0 462.11 0V423.47H282.49z" fill="#26251E" p-id="4176"></path><path d="M555.43 547.46h-83.77a21.26 21.26 0 0 1 0-42.52h83.77a21.26 21.26 0 1 1 0 42.52z" fill="#26251E" p-id="4177"></path></svg>