<?xml version="1.0" standalone="no"?><!DOCTYPE svg PUBLIC "-//W3C//DTD SVG 1.1//EN" "http://www.w3.org/Graphics/SVG/1.1/DTD/svg11.dtd"><svg t="1588566238035" class="icon" viewBox="0 0 1024 1024" version="1.1" xmlns="http://www.w3.org/2000/svg" p-id="6059" xmlns:xlink="http://www.w3.org/1999/xlink" width="200" height="200"><defs><style type="text/css">@font-face { font-family: yourDictFontAwesome; src: url("chrome-extension://dmckmhkomggmpalekfadjibdcknieljf/lib/fontawesome-webfont.ttf") format("truetype"); font-weight: normal; font-style: normal; }
</style></defs><path d="M891.0848 132.9152L555.2128 102.4c-0.1024 0-140.9024 140.6976-422.3488 422.0928a104.0384 104.0384 0 0 0 0 147.0976l219.5456 219.5456c40.6016 40.6016 106.496 40.6016 147.0976 0l421.888-421.888c0.1024-0.1024-9.984-112.2304-30.3104-336.3328zM564.48 0.4096l378.368 34.4064a51.2 51.2 0 0 1 46.336 46.336l34.4064 378.368a102.912 102.912 0 0 1-29.696 82.0736L571.904 963.584a206.4384 206.4384 0 0 1-291.8912 0L60.416 743.9872a206.4384 206.4384 0 0 1 0-291.8912L482.304 30.1568a102.912 102.912 0 0 1 82.1248-29.696z" fill="#313645" p-id="6060"></path><path d="M701.7984 394.5984a51.2 51.2 0 1 0-72.3968-72.3968 51.2 51.2 0 0 0 72.3968 72.3968zM557.056 249.856A153.6 153.6 0 1 1 774.144 466.944 153.6 153.6 0 0 1 557.056 249.856z" fill="#313645" p-id="6061"></path></svg>