<?xml version="1.0" standalone="no"?><!DOCTYPE svg PUBLIC "-//W3C//DTD SVG 1.1//EN" "http://www.w3.org/Graphics/SVG/1.1/DTD/svg11.dtd"><svg t="1588561128278" class="icon" viewBox="0 0 1024 1024" version="1.1" xmlns="http://www.w3.org/2000/svg" p-id="4440" xmlns:xlink="http://www.w3.org/1999/xlink" width="200" height="200"><defs><style type="text/css">@font-face { font-family: yourDictFontAwesome; src: url("chrome-extension://dmckmhkomggmpalekfadjibdcknieljf/lib/fontawesome-webfont.ttf") format("truetype"); font-weight: normal; font-style: normal; }
</style></defs><path d="M392.448255 0h238.494873v635.98633h-238.494873z" p-id="4441"></path><path d="M495.00105 1016.783145L155.543347 677.325441A23.849487 23.849487 0 0 1 172.237988 635.98633h678.915407a23.849487 23.849487 0 0 1 16.694641 41.339111l-338.662721 339.457704a23.849487 23.849487 0 0 1-34.184265 0z" p-id="4442"></path><path d="M392.448255 0h238.494873v635.98633h-238.494873z" p-id="4443"></path><path d="M495.00105 1016.783145L155.543347 677.325441A23.849487 23.849487 0 0 1 172.237988 635.98633h678.915407a23.849487 23.849487 0 0 1 16.694641 41.339111l-338.662721 339.457704a23.849487 23.849487 0 0 1-34.184265 0z" p-id="4444"></path></svg>