<?xml version="1.0" standalone="no"?><!DOCTYPE svg PUBLIC "-//W3C//DTD SVG 1.1//EN" "http://www.w3.org/Graphics/SVG/1.1/DTD/svg11.dtd"><svg t="1588309819891" class="icon" viewBox="0 0 1024 1024" version="1.1" xmlns="http://www.w3.org/2000/svg" p-id="6111" xmlns:xlink="http://www.w3.org/1999/xlink" width="200" height="200"><defs><style type="text/css">@font-face { font-family: yourDictFontAwesome; src: url("chrome-extension://dmckmhkomggmpalekfadjibdcknieljf/lib/fontawesome-webfont.ttf") format("truetype"); font-weight: normal; font-style: normal; }
</style></defs><path d="M341.7 70.5H627v888.8H341.7z" fill="#FFFFFF" p-id="6112"></path><path d="M627 969.2H341.7c-5.5 0-10-4.5-10-10V70.5c0-5.5 4.5-10 10-10H627c5.5 0 10 4.5 10 10v888.8c0 5.5-4.5 9.9-10 9.9z m-275.3-20H617V80.5H351.7v868.7z" fill="#7F4254" p-id="6113"></path><path d="M346.9 490.8h274.9v60.5H346.9z" fill="#E14B61" p-id="6114"></path><path d="M341.7 351.2h280.1v32.3H341.7z" fill="#FFFFFF" p-id="6115"></path><path d="M621.8 393.5H341.7c-5.5 0-10-4.5-10-10v-32.3c0-5.5 4.5-10 10-10h280.1c5.5 0 10 4.5 10 10v32.3c0 5.5-4.5 10-10 10z m-270.1-20h260.1v-12.3H351.7v12.3z" fill="#7F4254" p-id="6116"></path><path d="M479.2 219.4c-20.4 0-37-16.6-37-37s16.6-37 37-37 37 16.6 37 37-16.7 37-37 37z m0-53.9c-9.4 0-17 7.6-17 17s7.6 17 17 17 17-7.6 17-17c-0.1-9.4-7.7-17-17-17z" fill="#7F4254" p-id="6117"></path><path d="M608.2 969.9H360.5c-15.9 0-28.8-13.5-28.8-30.1V281.1c0-93.8 68.5-170.2 152.6-170.2 84.2 0 152.6 76.4 152.6 170.2v658.7c0.1 16.6-12.8 30.1-28.7 30.1z m-123.8-839c-73.1 0-132.6 67.4-132.6 150.2v658.7c0 5.6 3.9 10.1 8.8 10.1h247.7c4.8 0 8.8-4.5 8.8-10.1V281.1c-0.1-82.9-59.6-150.2-132.7-150.2z" fill="#7F4254" p-id="6118"></path></svg>