<?xml version="1.0" standalone="no"?><!DOCTYPE svg PUBLIC "-//W3C//DTD SVG 1.1//EN" "http://www.w3.org/Graphics/SVG/1.1/DTD/svg11.dtd"><svg t="1588310125899" class="icon" viewBox="0 0 1024 1024" version="1.1" xmlns="http://www.w3.org/2000/svg" p-id="7704" xmlns:xlink="http://www.w3.org/1999/xlink" width="200" height="200"><defs><style type="text/css">@font-face { font-family: yourDictFontAwesome; src: url("chrome-extension://dmckmhkomggmpalekfadjibdcknieljf/lib/fontawesome-webfont.ttf") format("truetype"); font-weight: normal; font-style: normal; }
</style></defs><path d="M268.190476 48.761905h536.380953a195.047619 195.047619 0 0 1 195.047619 195.047619v682.666666a48.761905 48.761905 0 0 1-48.761905 48.761905H121.904762a48.761905 48.761905 0 0 1-48.761905-48.761905V243.809524a195.047619 195.047619 0 0 1 195.047619-195.047619z" fill="#E2A6D9" p-id="7705"></path><path d="M243.809524 48.761905h499.565714a195.047619 195.047619 0 0 1 195.047619 195.047619v682.666666a48.761905 48.761905 0 0 1-48.761905 48.761905H97.52381a48.761905 48.761905 0 0 1-48.761905-48.761905V243.809524a195.047619 195.047619 0 0 1 195.047619-195.047619z" fill="#FFE115" p-id="7706"></path><path d="M219.428571 73.142857a170.666667 170.666667 0 0 0-170.666666 170.666667v682.666666a24.380952 24.380952 0 0 0 24.380952 24.380953h828.952381a24.380952 24.380952 0 0 0 24.380952-24.380953V243.809524a170.666667 170.666667 0 0 0-170.666666-170.666667H219.428571z m0-24.380952h536.380953a195.047619 195.047619 0 0 1 195.047619 195.047619v682.666666a48.761905 48.761905 0 0 1-48.761905 48.761905H73.142857a48.761905 48.761905 0 0 1-48.761905-48.761905V243.809524a195.047619 195.047619 0 0 1 195.047619-195.047619z" fill="#6530AF" p-id="7707"></path><path d="M316.68419 13.702095l341.601524 4.876191 47.689143 238.128762-455.094857-5.193143z" fill="#FFE115" p-id="7708"></path><path d="M650.48381 24.380952H323.779048l-59.855238 219.428572h426.496l-39.91162-219.428572z m-345.356191-24.380952h365.714286l48.761905 268.190476h-487.619048l73.142857-268.190476z" fill="#6530AF" p-id="7709"></path><path d="M641.828571 18.870857a12.190476 12.190476 0 1 1 19.968 13.970286l-164.181333 234.398476a12.190476 12.190476 0 0 1-19.992381-13.970286l164.205714-234.398476z" fill="#6530AF" p-id="7710"></path><path d="M326.875429 13.214476a12.190476 12.190476 0 0 0-19.846096 14.189714l174.396953 243.614477a12.190476 12.190476 0 1 0 19.821714-14.189715l-174.372571-243.614476z" fill="#6530AF" p-id="7711"></path><path d="M638.171429 24.039619L518.753524 195.047619l-25.258667-11.800381 109.763048-159.207619z" fill="#A8FDFB" p-id="7712"></path><path d="M487.619048 243.809524h24.380952l73.142857 707.047619-73.142857 68.217905-73.142857-45.763048z" fill="#E2A6D9" p-id="7713"></path><path d="M463.238095 243.809524h48.761905l48.761905 707.047619-73.142857 45.763047L414.47619 950.857143z" fill="#FFFFFF" p-id="7714"></path><path d="M505.490286 168.350476l34.767238 34.742857a24.380952 24.380952 0 0 1 0.902095 33.52381l-51.541333 57.465905-51.492572-58.075429a24.380952 24.380952 0 0 1 0.390096-32.792381l31.890285-34.255238a24.380952 24.380952 0 0 1 35.084191-0.609524z" fill="#E2A6D9" p-id="7715"></path><path d="M504.856381 167.716571l34.474667 34.474667a24.380952 24.380952 0 0 1 0 34.474667L487.619048 288.377905l-51.712-51.687619a24.380952 24.380952 0 0 1 0-34.499048l34.474666-34.474667a24.380952 24.380952 0 0 1 34.474667 0z" fill="#FFFFFF" p-id="7716"></path></svg>