<?xml version="1.0" standalone="no"?><!DOCTYPE svg PUBLIC "-//W3C//DTD SVG 1.1//EN" "http://www.w3.org/Graphics/SVG/1.1/DTD/svg11.dtd"><svg t="1588310193603" class="icon" viewBox="0 0 1024 1024" version="1.1" xmlns="http://www.w3.org/2000/svg" p-id="12677" xmlns:xlink="http://www.w3.org/1999/xlink" width="200" height="200"><defs><style type="text/css">@font-face { font-family: yourDictFontAwesome; src: url("chrome-extension://dmckmhkomggmpalekfadjibdcknieljf/lib/fontawesome-webfont.ttf") format("truetype"); font-weight: normal; font-style: normal; }
</style></defs><path d="M761.9 603.3c-29.8-29.8-69.4-46.2-111.6-46.2h-66.6v-162h14c9.7 0 17.5-7.9 17.5-17.5v-70.1c0-9.7-7.9-17.5-17.5-17.5H247c-9.7 0-17.5 7.9-17.5 17.5v70.1c0 9.7 7.9 17.5 17.5 17.5h14v425.1c0 9.7 7.9 17.5 17.5 17.5h512c9.7 0 17.5-7.9 17.5-17.5V714.9c0.2-42.1-16.3-81.8-46.1-111.6z" p-id="12678"></path><path d="M264.6 324.9h315.6V360H264.6z" fill="#F0C275" p-id="12679"></path><path d="M650.3 592.2c67.7 0 122.7 55.1 122.7 122.7v24.5H296V395.1h252.5v179.6c0 9.7 7.9 17.5 17.5 17.5h84.3z" fill="#F3A459" p-id="12680"></path><path d="M296.1 774.5h477v28.1h-477z" fill="#EE7E32" p-id="12681"></path><path d="M470.8 422.2H559v35.1h-88.2v-35.1z m0 65.7H559V523h-88.2v-35.1z m0 0" p-id="12682"></path></svg>