<?xml version="1.0" standalone="no"?><!DOCTYPE svg PUBLIC "-//W3C//DTD SVG 1.1//EN" "http://www.w3.org/Graphics/SVG/1.1/DTD/svg11.dtd"><svg t="1588307246430" class="icon" viewBox="0 0 1024 1024" version="1.1" xmlns="http://www.w3.org/2000/svg" p-id="2309" xmlns:xlink="http://www.w3.org/1999/xlink" width="200" height="200"><defs><style type="text/css">@font-face { font-family: yourDictFontAwesome; src: url("chrome-extension://dmckmhkomggmpalekfadjibdcknieljf/lib/fontawesome-webfont.ttf") format("truetype"); font-weight: normal; font-style: normal; }
</style></defs><path d="M879.21 681.33l61.56 62.6S833 901 513 901.7h-2C191 901 83.24 743.93 83.24 743.93L145 681.11c59 48.56 172.19 122.66 367 122.66 194.48 0 308.37-73.91 367.21-122.44z" fill="#FFFFFF" p-id="2310"></path><path d="M411.39 408.34l-74-231.13 112.87-54.93L512 177.64l61.73-55.35 112.87 54.93-74 231.13-0.45 1.42 267.06 271.56C820.37 729.86 706.48 803.77 512 803.77c-194.79 0-308-74.1-367-122.66l266.84-271.35z m154.2 27.71V386a6.79 6.79 0 0 0-10.38-5.77l-39.62 24.65a6.8 6.8 0 0 1-7.18 0l-39.62-24.65A6.79 6.79 0 0 0 458.4 386v50a6.79 6.79 0 0 0 10.38 5.77l39.62-24.65a6.8 6.8 0 0 1 7.18 0l39.62 24.65a6.79 6.79 0 0 0 10.4-5.71z" fill="#F5D038" p-id="2311"></path><path d="M565.6 386v50a6.79 6.79 0 0 1-10.38 5.77l-39.62-24.65a6.8 6.8 0 0 0-7.18 0l-39.62 24.65a6.79 6.79 0 0 1-10.38-5.77v-50a6.79 6.79 0 0 1 10.38-5.77l39.62 24.65a6.8 6.8 0 0 0 7.18 0l39.62-24.65A6.79 6.79 0 0 1 565.6 386z" fill="#141414" p-id="2312"></path><path d="M513 923h-2.8c-74.56-0.21-144.06-8.85-206.58-25.67-50.59-13.61-96.78-32.59-137.29-56.4C96.14 799.61 66.92 757.72 65.71 756a21.26 21.26 0 0 1 2.37-27l319.6-325-70.53-220.3a21.26 21.26 0 0 1 10.94-25.6L441 103.17a21.26 21.26 0 0 1 23.5 3.29l47.5 42.62 47.54-42.62a21.26 21.26 0 0 1 23.5-3.29l112.87 54.93a21.26 21.26 0 0 1 10.94 25.6L636.32 404l258 262.41 61.6 62.59a21.26 21.26 0 0 1 2.37 27c-1.21 1.76-30.43 43.65-100.65 84.93-40.51 23.82-86.7 42.79-137.29 56.4-62.53 16.82-132 25.46-206.58 25.67zM111.94 745.07c13.14 14 38.38 37.42 78.5 60.64 37.19 21.52 79.7 38.71 126.35 51.08 58.6 15.54 123.94 23.5 194.22 23.65h2c250.27-0.53 365.25-99.06 399.11-135.34l-48-48.86L597 424.67a21.26 21.26 0 0 1-5.1-21.34l0.45-1.42 68.39-213.63-83.46-40.61-51.09 45.8a21.26 21.26 0 0 1-28.38 0l-51.09-45.8-83.46 40.61 68.84 215a21.26 21.26 0 0 1-5.1 21.36z" fill="#26251E" p-id="2313"></path><path d="M512 803.91c-85.74 0-164.63-14.51-234.47-43.13a510.06 510.06 0 0 1-132.6-79.56l0.18-0.22a509.8 509.8 0 0 0 132.53 79.52c69.81 28.6 148.66 43.11 234.37 43.11s164.49-14.47 234.42-43a506.06 506.06 0 0 0 132.7-79.4l0.18 0.22a506.28 506.28 0 0 1-132.78 79.44c-69.97 28.54-148.88 43.02-234.53 43.02zM403.31 387.08h43.78v42.52h-43.78zM577.02 387.08h51.38v42.52h-51.38z" fill="#26251E" p-id="2314"></path><path d="M512 821c-19.69 0-37.1-7.12-52.46-13.39-10.15-4.15-19.73-8.07-27.76-9-10.27-1.15-21.68 0.63-33.75 2.51-16.22 2.53-33 5.15-49.84 1-20-4.89-35.5-16.6-49.17-26.93-8.4-6.35-16.32-12.34-23.42-15.2-10-4-21.59-5.6-33.84-7.25-16.3-2.19-33.16-4.46-47.8-13.2-19.57-11.68-31.81-29.19-41.65-43.26-5.4-7.73-10.51-15-15.1-18.81l27-32.82c9.08 7.48 16.12 17.54 22.92 27.27 8.29 11.85 16.85 24.1 28.59 31.11 7.16 4.27 19.07 5.87 31.68 7.57 13.64 1.83 29.1 3.91 44.08 10 12.32 5 22.91 13 33.15 20.72 11.39 8.61 22.15 16.75 33.61 19.55 8.6 2.1 20.55 0.23 33.2-1.74 13.64-2.13 29.09-4.53 45-2.76 13.91 1.55 26.73 6.79 39.13 11.86 12.88 5.26 25 10.23 36.37 10.23s23.49-5 36.37-10.23c12.41-5.07 25.23-10.31 39.16-11.86 15.92-1.77 31.38 0.64 45 2.77 12.66 2 24.62 3.84 33.23 1.75 11.53-2.75 22.3-10.89 33.7-19.47 10.26-7.74 20.87-15.74 33.21-20.7 15-6 30.47-8.09 44.12-9.9 12.61-1.68 24.53-3.26 31.69-7.52 11.8-7 20.39-19.29 28.7-31.16 6.78-9.69 13.8-19.71 22.82-27.15l27.06 32.8c-4.57 3.77-9.66 11-15.05 18.74-9.87 14.09-22.15 31.63-41.8 43.32-14.65 8.71-31.51 11-47.82 13.12-12.25 1.63-23.82 3.17-33.87 7.2-7.1 2.83-15.05 8.83-23.46 15.2-13.68 10.32-29.18 22-49.16 26.88-16.85 4.11-33.63 1.49-49.85-1-12.07-1.88-23.47-3.67-33.75-2.52-8 0.9-17.63 4.82-27.79 9C549.09 813.92 531.68 821 512 821z" fill="#26251E" p-id="2315"></path></svg>